<mxfile host="Electron" agent="Mozilla/5.0 (Windows NT 10.0; Win64; x64) AppleWebKit/537.36 (KHTML, like Gecko) draw.io/28.1.2 Chrome/138.0.7204.243 Electron/37.4.0 Safari/537.36" version="28.1.2">
  <diagram name="Halaman-1" id="WpESXn2pWVV-clCOipwv">
    <mxGraphModel dx="2222" dy="1222" grid="1" gridSize="10" guides="1" tooltips="1" connect="1" arrows="1" fold="1" page="1" pageScale="1" pageWidth="850" pageHeight="1100" math="0" shadow="0">
      <root>
        <mxCell id="0" />
        <mxCell id="1" parent="0" />
        <mxCell id="alzfe9KILLGwUV3jK4tZ-1" value="" style="edgeStyle=orthogonalEdgeStyle;rounded=0;orthogonalLoop=1;jettySize=auto;html=1;fontFamily=Helvetica;fontSize=12;fontColor=default;" edge="1" parent="1" source="alzfe9KILLGwUV3jK4tZ-3" target="alzfe9KILLGwUV3jK4tZ-8">
          <mxGeometry relative="1" as="geometry" />
        </mxCell>
        <mxCell id="alzfe9KILLGwUV3jK4tZ-2" value="" style="edgeStyle=orthogonalEdgeStyle;rounded=0;orthogonalLoop=1;jettySize=auto;html=1;fontFamily=Helvetica;fontSize=12;fontColor=default;" edge="1" parent="1" source="alzfe9KILLGwUV3jK4tZ-3" target="alzfe9KILLGwUV3jK4tZ-10">
          <mxGeometry relative="1" as="geometry" />
        </mxCell>
        <mxCell id="alzfe9KILLGwUV3jK4tZ-3" value="Paket 1" style="rhombus;whiteSpace=wrap;html=1;" vertex="1" parent="1">
          <mxGeometry x="352" y="185" width="80" height="80" as="geometry" />
        </mxCell>
        <mxCell id="alzfe9KILLGwUV3jK4tZ-4" value="" style="edgeStyle=orthogonalEdgeStyle;rounded=0;orthogonalLoop=1;jettySize=auto;html=1;fontFamily=Helvetica;fontSize=12;fontColor=default;" edge="1" parent="1" source="alzfe9KILLGwUV3jK4tZ-5" target="alzfe9KILLGwUV3jK4tZ-14">
          <mxGeometry relative="1" as="geometry" />
        </mxCell>
        <mxCell id="alzfe9KILLGwUV3jK4tZ-5" value="Output &quot;Paket Bronze&lt;div&gt;Keuntungan: Akses dasar ke lagu-lagu populer.&quot;&lt;/div&gt;" style="shape=parallelogram;perimeter=parallelogramPerimeter;whiteSpace=wrap;html=1;fixedSize=1;" vertex="1" parent="1">
          <mxGeometry x="472" y="348" width="230" height="80" as="geometry" />
        </mxCell>
        <mxCell id="alzfe9KILLGwUV3jK4tZ-6" style="edgeStyle=orthogonalEdgeStyle;rounded=0;orthogonalLoop=1;jettySize=auto;html=1;exitX=1;exitY=0.5;exitDx=0;exitDy=0;fontFamily=Helvetica;fontSize=12;fontColor=default;" edge="1" parent="1" source="alzfe9KILLGwUV3jK4tZ-8">
          <mxGeometry relative="1" as="geometry">
            <mxPoint x="491.9999999999998" y="652.1538461538462" as="targetPoint" />
          </mxGeometry>
        </mxCell>
        <mxCell id="alzfe9KILLGwUV3jK4tZ-7" value="" style="edgeStyle=orthogonalEdgeStyle;rounded=0;orthogonalLoop=1;jettySize=auto;html=1;fontFamily=Helvetica;fontSize=12;fontColor=default;" edge="1" parent="1" source="alzfe9KILLGwUV3jK4tZ-8">
          <mxGeometry relative="1" as="geometry">
            <mxPoint x="392" y="1032" as="targetPoint" />
          </mxGeometry>
        </mxCell>
        <mxCell id="alzfe9KILLGwUV3jK4tZ-8" value="Paket 2" style="rhombus;whiteSpace=wrap;html=1;" vertex="1" parent="1">
          <mxGeometry x="352" y="612" width="80" height="80" as="geometry" />
        </mxCell>
        <mxCell id="alzfe9KILLGwUV3jK4tZ-9" value="" style="edgeStyle=orthogonalEdgeStyle;rounded=0;orthogonalLoop=1;jettySize=auto;html=1;fontFamily=Helvetica;fontSize=12;fontColor=default;" edge="1" parent="1" source="alzfe9KILLGwUV3jK4tZ-10" target="alzfe9KILLGwUV3jK4tZ-12">
          <mxGeometry relative="1" as="geometry" />
        </mxCell>
        <mxCell id="alzfe9KILLGwUV3jK4tZ-10" value="admin = biaya langganan * 0.01" style="whiteSpace=wrap;html=1;" vertex="1" parent="1">
          <mxGeometry x="492" y="194" width="190" height="60" as="geometry" />
        </mxCell>
        <mxCell id="alzfe9KILLGwUV3jK4tZ-11" style="edgeStyle=orthogonalEdgeStyle;rounded=0;orthogonalLoop=1;jettySize=auto;html=1;exitX=0.5;exitY=1;exitDx=0;exitDy=0;entryX=0.5;entryY=0;entryDx=0;entryDy=0;fontFamily=Helvetica;fontSize=12;fontColor=default;" edge="1" parent="1" source="alzfe9KILLGwUV3jK4tZ-12" target="alzfe9KILLGwUV3jK4tZ-5">
          <mxGeometry relative="1" as="geometry" />
        </mxCell>
        <mxCell id="alzfe9KILLGwUV3jK4tZ-12" value="total = biaya langganan + admin" style="whiteSpace=wrap;html=1;" vertex="1" parent="1">
          <mxGeometry x="492" y="270" width="190" height="60" as="geometry" />
        </mxCell>
        <mxCell id="alzfe9KILLGwUV3jK4tZ-50" style="edgeStyle=orthogonalEdgeStyle;rounded=0;orthogonalLoop=1;jettySize=auto;html=1;exitX=1;exitY=0.5;exitDx=0;exitDy=0;" edge="1" parent="1" source="alzfe9KILLGwUV3jK4tZ-14">
          <mxGeometry relative="1" as="geometry">
            <mxPoint x="790" y="972" as="targetPoint" />
          </mxGeometry>
        </mxCell>
        <mxCell id="alzfe9KILLGwUV3jK4tZ-14" value="Output &quot;Total bayar:&quot;, total" style="shape=parallelogram;perimeter=parallelogramPerimeter;whiteSpace=wrap;html=1;fixedSize=1;" vertex="1" parent="1">
          <mxGeometry x="490" y="447" width="195" height="60" as="geometry" />
        </mxCell>
        <mxCell id="alzfe9KILLGwUV3jK4tZ-15" style="edgeStyle=orthogonalEdgeStyle;rounded=0;orthogonalLoop=1;jettySize=auto;html=1;exitX=0.5;exitY=1;exitDx=0;exitDy=0;entryX=0.5;entryY=0;entryDx=0;entryDy=0;fontFamily=Helvetica;fontSize=12;fontColor=default;" edge="1" parent="1" source="alzfe9KILLGwUV3jK4tZ-16" target="alzfe9KILLGwUV3jK4tZ-18">
          <mxGeometry relative="1" as="geometry" />
        </mxCell>
        <mxCell id="alzfe9KILLGwUV3jK4tZ-16" value="admin = biaya langganan * 0.03" style="whiteSpace=wrap;html=1;" vertex="1" parent="1">
          <mxGeometry x="498" y="632" width="190" height="60" as="geometry" />
        </mxCell>
        <mxCell id="alzfe9KILLGwUV3jK4tZ-17" style="edgeStyle=orthogonalEdgeStyle;rounded=0;orthogonalLoop=1;jettySize=auto;html=1;exitX=0.5;exitY=1;exitDx=0;exitDy=0;entryX=0.5;entryY=0;entryDx=0;entryDy=0;fontFamily=Helvetica;fontSize=12;fontColor=default;" edge="1" parent="1" source="alzfe9KILLGwUV3jK4tZ-18" target="alzfe9KILLGwUV3jK4tZ-20">
          <mxGeometry relative="1" as="geometry" />
        </mxCell>
        <mxCell id="alzfe9KILLGwUV3jK4tZ-18" value="total = biaya langganan + admin" style="whiteSpace=wrap;html=1;" vertex="1" parent="1">
          <mxGeometry x="498" y="712" width="190" height="60" as="geometry" />
        </mxCell>
        <mxCell id="alzfe9KILLGwUV3jK4tZ-19" style="edgeStyle=orthogonalEdgeStyle;rounded=0;orthogonalLoop=1;jettySize=auto;html=1;exitX=0.5;exitY=1;exitDx=0;exitDy=0;fontFamily=Helvetica;fontSize=12;fontColor=default;" edge="1" parent="1" source="alzfe9KILLGwUV3jK4tZ-20">
          <mxGeometry relative="1" as="geometry">
            <mxPoint x="587" y="912" as="targetPoint" />
          </mxGeometry>
        </mxCell>
        <mxCell id="alzfe9KILLGwUV3jK4tZ-20" value="Output &quot;Paket Silver&lt;div&gt;Keuntungan: Akses lagu premium, playlist kustom.&quot;&lt;/div&gt;" style="shape=parallelogram;perimeter=parallelogramPerimeter;whiteSpace=wrap;html=1;fixedSize=1;" vertex="1" parent="1">
          <mxGeometry x="455.5" y="802" width="264" height="80" as="geometry" />
        </mxCell>
        <mxCell id="alzfe9KILLGwUV3jK4tZ-21" style="edgeStyle=orthogonalEdgeStyle;rounded=0;orthogonalLoop=1;jettySize=auto;html=1;exitX=1;exitY=0.5;exitDx=0;exitDy=0;" edge="1" parent="1" source="alzfe9KILLGwUV3jK4tZ-22">
          <mxGeometry relative="1" as="geometry">
            <mxPoint x="790" y="942" as="targetPoint" />
          </mxGeometry>
        </mxCell>
        <mxCell id="alzfe9KILLGwUV3jK4tZ-22" value="Output &quot;Total bayar:&quot;, total" style="shape=parallelogram;perimeter=parallelogramPerimeter;whiteSpace=wrap;html=1;fixedSize=1;" vertex="1" parent="1">
          <mxGeometry x="489.5" y="912" width="195" height="60" as="geometry" />
        </mxCell>
        <mxCell id="alzfe9KILLGwUV3jK4tZ-54" style="edgeStyle=orthogonalEdgeStyle;rounded=0;orthogonalLoop=1;jettySize=auto;html=1;exitX=0.5;exitY=1;exitDx=0;exitDy=0;entryX=0.5;entryY=0;entryDx=0;entryDy=0;" edge="1" parent="1" source="alzfe9KILLGwUV3jK4tZ-48" target="alzfe9KILLGwUV3jK4tZ-3">
          <mxGeometry relative="1" as="geometry" />
        </mxCell>
        <mxCell id="alzfe9KILLGwUV3jK4tZ-48" value="A" style="ellipse;whiteSpace=wrap;html=1;" vertex="1" parent="1">
          <mxGeometry x="352" y="26" width="80" height="80" as="geometry" />
        </mxCell>
        <mxCell id="alzfe9KILLGwUV3jK4tZ-52" value="END" style="ellipse;whiteSpace=wrap;html=1;" vertex="1" parent="1">
          <mxGeometry x="730" y="937" width="120" height="80" as="geometry" />
        </mxCell>
        <mxCell id="alzfe9KILLGwUV3jK4tZ-53" value="B" style="shape=hexagon;perimeter=hexagonPerimeter2;whiteSpace=wrap;html=1;fixedSize=1;" vertex="1" parent="1">
          <mxGeometry x="336" y="1019" width="120" height="80" as="geometry" />
        </mxCell>
      </root>
    </mxGraphModel>
  </diagram>
</mxfile>
